<?xml version="1.0" encoding="utf-8"?>
<!-- Generator: Adobe Illustrator 22.1.0, SVG Export Plug-In . SVG Version: 6.00 Build 0)  -->
<svg version="1.1" id="Layer_1" xmlns="http://www.w3.org/2000/svg" xmlns:xlink="http://www.w3.org/1999/xlink" x="0px" y="0px"
	 viewBox="0 0 405.8 194.6" style="enable-background:new 0 0 405.8 194.6;" xml:space="preserve">
<style type="text/css">
	.st0{fill:#002F87;}
	.st1{fill:#F3C300;}
</style>
<g>
	<path class="st0" d="M396.6,40.7c-5.2,0-9.4,4-9.4,9.1s4.1,9.1,9.3,9.1c5.2,0,9.3-4,9.3-9.1S401.7,40.7,396.6,40.7z M396.6,57
		c-4,0-7.1-3.2-7.1-7.2c0-4,3-7.2,7-7.2c4,0,7,3.3,7,7.3C403.5,53.8,400.5,57.1,396.6,57z"/>
	<path class="st0" d="M398.7,50.1V50c1.1-0.3,1.9-1,1.9-2.2c0-0.9-0.4-1.5-0.9-1.9c-0.6-0.4-1.4-0.7-3.1-0.7c-1.5,0-2.6,0.2-3.5,0.3
		v9.1h2.1v-3.6h1c1.2,0,1.7,0.4,1.9,1.4c0.3,1.1,0.4,1.9,0.7,2.2h2.2c-0.2-0.3-0.4-0.8-0.7-2.2C400,51.1,399.5,50.3,398.7,50.1z
		 M396.2,49.4h-1v-2.6c0.2-0.1,0.6-0.1,1.2-0.1c1.3,0,1.9,0.6,1.9,1.4C398.3,49,397.3,49.4,396.2,49.4z"/>
	<g>
		<path class="st0" d="M45.7,30.6c-5.3-4.8-13.3-7.2-23.9-7.2C14.5,23.4,7.7,24,1.3,25L0,25.2v83.4h13.7V76.3
			c2.2,0.3,4.6,0.4,6.9,0.4c11.1,0,20.3-3.4,26-9.4c4.5-4.6,6.7-10.8,6.7-18.5C53.3,41.3,50.6,34.8,45.7,30.6z M20.8,65.1
			c-2.9,0-5.3-0.2-7.1-0.5V35.4c2-0.3,5-0.5,8.3-0.5c6.6,0,17.6,1.9,17.6,14.4C39.7,59.5,33,65.1,20.8,65.1z"/>
		<path class="st0" d="M71.4,57.2c-13.9,0-23.5,11.1-23.5,26.9c0,15.4,9.7,25.3,24.6,25.3c7.7,0,13.1-1.7,16.3-3.2l1-0.4l-2.1-8.7
			l-1.4,0.6c-2.9,1.2-6.4,2.4-12.6,2.4c-4.3,0-14.1-1.4-14.9-13.9h33.2l0.2-1.5c0.1-0.9,0.3-2.2,0.3-3.8
			C92.2,63.4,81,57.2,71.4,57.2z M70.7,66c3.1,0,5.5,0.9,7.3,2.8c2.6,2.7,3.2,6.5,3.3,8.7H58.9C59.9,72.6,63.2,66,70.7,66z"/>
		<path class="st0" d="M120.4,57.2c-6.8,0-11.8,3.1-14.8,6.6l-0.3-5.6H95l0.1,1.4c0.3,3.6,0.4,7.4,0.4,12.8v35.9h11.2V78.5
			c0-1.4,0.2-2.7,0.5-3.6c1.2-3.9,4.9-7.9,10.4-7.9c8,0,9.7,6.9,9.7,12.7v28.6h11.2V78.7C138.4,68.8,133.7,57.2,120.4,57.2z"/>
		<path class="st0" d="M169.9,57.2c-6.9,0-11.8,3.1-14.8,6.6l-0.3-5.6h-10.2l0.1,1.4c0.3,3.6,0.4,7.4,0.4,12.8v35.9h11.2V78.5
			c0-1.4,0.2-2.7,0.5-3.6c1.2-3.9,4.9-7.9,10.3-7.9c8,0,9.7,6.9,9.7,12.7v28.6H188V78.7C188,68.8,183.2,57.2,169.9,57.2z"/>
		<path class="st0" d="M222.8,58.3L213.1,87c-0.7,2.1-1.3,4.2-1.9,6.2c-0.6-1.9-1.3-4-2-6l-10.7-28.9h-12.2l18.2,45.4
			c0.2,0.4,0.5,1.4,0.5,1.8c0,0.3-0.4,1.1-0.6,1.5c-1.6,3.6-4.2,7-6.9,9.2c-2.9,2.5-5.9,3.6-7.1,4l-1.2,0.4l2.8,9.6l1.1-0.2
			c1.3-0.2,6.1-1.4,11.2-5.9c5.8-5,10-12.6,16.6-30.2l13.6-35.6H222.8z"/>
		<path class="st0" d="M285.9,39.7l-12.1,32.8c-2.6,7.3-4.5,13.1-5.9,18.2c-1.4-5.1-3.2-10.9-5.6-18.2l-11.6-32.8h-13l-4.8,68.6
			h10.7l1.8-29.5c0.4-7,0.8-14.4,1-21.1c1.4,5.1,3.3,10.9,5.6,17.9l11,32.3h8.3l12-32.9c2.3-6.2,4.4-12.2,6.2-18.1
			c0.2,6.9,0.6,14.6,0.9,21.2l1.7,30.2h10.9l-4.3-68.6H285.9z"/>
		<path class="st0" d="M345,95.7V77.9c0-13.5-6.7-20.7-19.3-20.7c-6,0-12,1.6-16.3,4.4l-0.8,0.5l2.8,8.2l1.4-0.9
			c3.2-2.1,7.6-3.3,11.7-3.3c6.3,0,9.4,3.1,9.5,9.4c-24.8,0.3-28.5,11.9-28.5,18.9c0,7.4,5.4,14.9,15.8,14.9c5.4,0,10.4-2,13.8-5.6
			l0.5,4.5H346l-0.3-1.5C345.2,104,345,100.4,345,95.7z M333.9,84.1c0,0,0.1,0,0.1,0v7c0,0.7-0.2,1.5-0.4,2.3
			c-1.1,3.3-4.5,7.1-10.3,7.1c-4.3,0-6.9-2.6-6.9-7C316.5,87.3,322.4,84.1,333.9,84.1z"/>
		<path class="st0" d="M374.8,66.8c4.7,0,7.7,1.1,9.4,2.1l1.4,0.8l2.7-9.2l-1-0.5c-2.4-1.2-7.1-2.6-12.5-2.6
			C359,57.3,348,68.2,348,83.8c0,15.3,10,25.6,24.9,25.6c6.3,0,11.5-1.5,14.2-3l0.9-0.5l-2-8.9l-1.4,0.6c-2.5,1.1-5.5,2.2-10.1,2.2
			c-9.1,0-15.2-6.6-15.2-16.5C359.3,73.3,365.4,66.8,374.8,66.8z"/>
		<rect x="98.8" class="st0" width="12.5" height="24.2"/>
		<path class="st1" d="M221.2,36.4L154.8,3.3c-5.2-2.2-12.7-2.5-17.7,0L70.8,36.4c-11.6,5.7,6.3,14.2,17.7,8.6l57.4-28.7L203.6,45
			C215.1,50.8,232.5,42,221.2,36.4L221.2,36.4z"/>
	</g>
	<g>
		<path class="st0" d="M38.2,189.1v-26.6h3.1v23.8H53v2.8H38.2z"/>
		<path class="st0" d="M74.2,179.1c0,3.2-0.8,5.8-2.5,7.6s-3.9,2.7-6.8,2.7c-1.8,0-3.4-0.4-4.7-1.3c-1.4-0.8-2.4-2-3.2-3.6
			c-0.8-1.6-1.1-3.4-1.1-5.5c0-3.2,0.8-5.8,2.4-7.6c1.6-1.8,3.9-2.7,6.8-2.7c2.8,0,5,0.9,6.6,2.8C73.4,173.5,74.2,176,74.2,179.1z
			 M59,179.1c0,2.5,0.5,4.5,1.5,5.8c1,1.3,2.5,2,4.5,2c2,0,3.5-0.7,4.5-2c1-1.3,1.5-3.3,1.5-5.8c0-2.5-0.5-4.5-1.5-5.8
			c-1-1.3-2.5-2-4.5-2c-2,0-3.5,0.6-4.5,1.9C59.5,174.6,59,176.6,59,179.1z"/>
		<path class="st0" d="M91.7,189.1l-0.6-2.8H91c-1,1.2-2,2.1-3,2.5c-1,0.4-2.2,0.7-3.7,0.7c-2,0-3.5-0.5-4.6-1.5
			c-1.1-1-1.7-2.5-1.7-4.3c0-4,3.2-6.1,9.6-6.3l3.4-0.1v-1.2c0-1.6-0.3-2.7-1-3.5s-1.7-1.1-3.2-1.1c-1.7,0-3.5,0.5-5.6,1.5l-0.9-2.3
			c1-0.5,2.1-1,3.2-1.3c1.2-0.3,2.3-0.5,3.5-0.5c2.4,0,4.1,0.5,5.3,1.6s1.7,2.7,1.7,5.1v13.6H91.7z M84.9,187c1.9,0,3.4-0.5,4.4-1.5
			c1.1-1,1.6-2.5,1.6-4.3v-1.8l-3,0.1c-2.4,0.1-4.1,0.5-5.2,1.1c-1.1,0.7-1.6,1.7-1.6,3.1c0,1.1,0.3,1.9,1,2.5
			C82.8,186.7,83.7,187,84.9,187z"/>
		<path class="st0" d="M113.8,189.1v-12.9c0-1.6-0.4-2.8-1.1-3.6c-0.7-0.8-1.9-1.2-3.5-1.2c-2.1,0-3.6,0.6-4.6,1.7s-1.5,3-1.5,5.6
			v10.4h-3v-19.9h2.5l0.5,2.7h0.1c0.6-1,1.5-1.7,2.6-2.3s2.4-0.8,3.7-0.8c2.4,0,4.2,0.6,5.4,1.7s1.8,3,1.8,5.5v13H113.8z"/>
		<path class="st0" d="M148.1,182c0,2.3-0.8,4.2-2.5,5.5c-1.7,1.3-4,2-6.9,2c-3.1,0-5.6-0.4-7.3-1.2v-3c1.1,0.5,2.3,0.8,3.6,1.1
			s2.6,0.4,3.8,0.4c2.1,0,3.6-0.4,4.7-1.2s1.6-1.9,1.6-3.3c0-0.9-0.2-1.7-0.6-2.3c-0.4-0.6-1-1.1-1.9-1.6c-0.9-0.5-2.2-1.1-4-1.7
			c-2.5-0.9-4.2-1.9-5.3-3.1c-1.1-1.2-1.6-2.8-1.6-4.7c0-2,0.8-3.7,2.3-4.9c1.5-1.2,3.6-1.8,6.1-1.8c2.6,0,5.1,0.5,7.3,1.5l-1,2.7
			c-2.2-0.9-4.3-1.4-6.4-1.4c-1.6,0-2.9,0.4-3.8,1.1c-0.9,0.7-1.4,1.7-1.4,2.9c0,0.9,0.2,1.7,0.5,2.3c0.3,0.6,0.9,1.1,1.7,1.6
			c0.8,0.5,2,1,3.7,1.6c2.8,1,4.7,2.1,5.7,3.2S148.1,180.2,148.1,182z"/>
		<path class="st0" d="M161.5,189.5c-2.9,0-5.3-0.9-7-2.7c-1.7-1.8-2.6-4.3-2.6-7.5c0-3.2,0.8-5.8,2.4-7.6s3.7-2.8,6.4-2.8
			c2.5,0,4.5,0.8,5.9,2.5c1.5,1.6,2.2,3.8,2.2,6.5v1.9h-13.7c0.1,2.3,0.7,4.1,1.8,5.3c1.1,1.2,2.7,1.8,4.7,1.8
			c2.1,0,4.3-0.4,6.4-1.3v2.7c-1.1,0.5-2.1,0.8-3,1S162.9,189.5,161.5,189.5z M160.7,171.4c-1.6,0-2.9,0.5-3.8,1.6s-1.5,2.5-1.7,4.3
			h10.4c0-1.9-0.4-3.4-1.3-4.4S162.3,171.4,160.7,171.4z"/>
		<path class="st0" d="M183.1,168.8c0.9,0,1.7,0.1,2.4,0.2l-0.4,2.8c-0.8-0.2-1.6-0.3-2.2-0.3c-1.6,0-3,0.7-4.1,2
			c-1.1,1.3-1.7,2.9-1.7,4.9v10.7h-3v-19.9h2.5l0.3,3.7h0.1c0.7-1.3,1.6-2.3,2.7-3S181.8,168.8,183.1,168.8z"/>
		<path class="st0" d="M193.5,189.1l-7.6-19.9h3.2l4.3,11.8c1,2.8,1.5,4.6,1.7,5.4h0.1c0.1-0.6,0.6-2,1.3-4c0.7-2,2.3-6.4,4.8-13.2
			h3.2l-7.6,19.9H193.5z"/>
		<path class="st0" d="M207.5,163.8c0-0.7,0.2-1.2,0.5-1.5c0.3-0.3,0.8-0.5,1.3-0.5c0.5,0,0.9,0.2,1.3,0.5s0.5,0.8,0.5,1.5
			s-0.2,1.2-0.5,1.5s-0.8,0.5-1.3,0.5c-0.5,0-0.9-0.2-1.3-0.5S207.5,164.5,207.5,163.8z M210.8,189.1h-3v-19.9h3V189.1z"/>
		<path class="st0" d="M225.2,189.5c-2.9,0-5.1-0.9-6.7-2.7c-1.6-1.8-2.4-4.3-2.4-7.5c0-3.3,0.8-5.9,2.4-7.7
			c1.6-1.8,3.9-2.7,6.9-2.7c1,0,1.9,0.1,2.9,0.3c1,0.2,1.7,0.4,2.3,0.7l-0.9,2.6c-0.7-0.3-1.4-0.5-2.2-0.7c-0.8-0.2-1.5-0.3-2.1-0.3
			c-4,0-6.1,2.6-6.1,7.7c0,2.4,0.5,4.3,1.5,5.6c1,1.3,2.4,2,4.4,2c1.7,0,3.4-0.4,5.1-1.1v2.7C228.9,189.1,227.2,189.5,225.2,189.5z"
			/>
		<path class="st0" d="M243.3,189.5c-2.9,0-5.3-0.9-7-2.7c-1.7-1.8-2.6-4.3-2.6-7.5c0-3.2,0.8-5.8,2.4-7.6c1.6-1.9,3.7-2.8,6.4-2.8
			c2.5,0,4.5,0.8,5.9,2.5c1.5,1.6,2.2,3.8,2.2,6.5v1.9h-13.7c0.1,2.3,0.7,4.1,1.8,5.3c1.1,1.2,2.7,1.8,4.7,1.8
			c2.1,0,4.3-0.4,6.4-1.3v2.7c-1.1,0.5-2.1,0.8-3,1C245.8,189.4,244.7,189.5,243.3,189.5z M242.5,171.4c-1.6,0-2.9,0.5-3.8,1.6
			s-1.5,2.5-1.7,4.3h10.4c0-1.9-0.4-3.4-1.3-4.4C245.3,171.9,244.1,171.4,242.5,171.4z"/>
		<path class="st0" d="M268.6,183.7c0,1.9-0.7,3.3-2.1,4.3c-1.4,1-3.3,1.5-5.8,1.5c-2.6,0-4.7-0.4-6.2-1.3v-2.8c1,0.5,2,0.9,3.1,1.1
			c1.1,0.3,2.2,0.4,3.2,0.4c1.6,0,2.8-0.3,3.6-0.8c0.8-0.5,1.3-1.3,1.3-2.3c0-0.8-0.3-1.4-1-2c-0.7-0.6-2-1.2-3.9-2
			c-1.9-0.7-3.2-1.3-4-1.8c-0.8-0.5-1.4-1.1-1.7-1.8c-0.4-0.7-0.6-1.4-0.6-2.3c0-1.6,0.7-2.9,2-3.8c1.3-0.9,3.1-1.4,5.4-1.4
			c2.1,0,4.2,0.4,6.3,1.3l-1.1,2.5c-2-0.8-3.8-1.2-5.4-1.2c-1.4,0-2.5,0.2-3.2,0.7c-0.7,0.4-1.1,1.1-1.1,1.9c0,0.5,0.1,1,0.4,1.4
			c0.3,0.4,0.7,0.7,1.3,1.1c0.6,0.3,1.8,0.8,3.5,1.5c2.4,0.9,4,1.7,4.8,2.6C268.2,181.3,268.6,182.4,268.6,183.7z"/>
		<path class="st0" d="M276.7,184.8l0.3,0.4c-0.3,1.2-0.8,2.6-1.4,4.2c-0.6,1.6-1.2,3.1-1.9,4.5h-2.3c0.3-1.3,0.7-2.8,1.1-4.7
			s0.7-3.3,0.8-4.5H276.7z"/>
		<path class="st0" d="M292.8,189.1v-26.6h3.1v23.8h11.7v2.8H292.8z"/>
		<path class="st0" d="M312.1,189.1v-26.6h3.1v23.8h11.7v2.8H312.1z"/>
		<path class="st0" d="M342.8,164.9c-2.9,0-5.2,1-6.9,2.9c-1.7,1.9-2.5,4.6-2.5,8c0,3.5,0.8,6.2,2.4,8.1c1.6,1.9,4,2.8,7,2.8
			c1.9,0,4-0.3,6.3-1v2.7c-1.8,0.7-4.1,1-6.8,1c-3.9,0-6.9-1.2-9.1-3.6c-2.1-2.4-3.2-5.7-3.2-10.1c0-2.7,0.5-5.1,1.5-7.2
			s2.5-3.6,4.4-4.8s4.2-1.7,6.8-1.7c2.8,0,5.2,0.5,7.3,1.5l-1.3,2.7C346.8,165.4,344.8,164.9,342.8,164.9z"/>
	</g>
</g>
</svg>
